<?xml version="1.0" encoding="iso-8859-1"?>
<!-- Uploaded to: SVG Repo, www.svgrepo.com, Generator: SVG Repo Mixer Tools -->
<svg height="800px" width="800px" version="1.1" id="Capa_1" xmlns="http://www.w3.org/2000/svg" xmlns:xlink="http://www.w3.org/1999/xlink" 
	 viewBox="0 0 474.557 474.557" xml:space="preserve">
<g>
	<g>
		<g>
			<path style="fill:#010002;" d="M141.116,231.886l-30.889,30.868l31.58,31.493l30.889-30.846
				c12.899,8.758,27.654,14.884,43.53,17.925v43.767h44.565v-43.767c15.855-3.041,30.609-9.168,43.53-17.925l30.868,30.846
				l31.601-31.493l-30.911-30.911c8.715-12.899,14.841-27.632,17.904-43.487h43.81v-44.565h-43.832
				c-3.085-15.898-9.189-30.652-17.947-43.53l30.932-30.954l-31.601-31.45l-30.846,30.889
				c-12.942-8.736-27.654-14.841-43.551-17.947V7.01h-44.565v43.789c-15.855,3.106-30.631,9.189-43.53,17.947l-30.846-30.889
				l-31.58,31.493l30.889,30.954c-8.693,12.878-14.841,27.589-17.904,43.53H79.488v44.587h43.724
				C126.275,204.232,132.423,218.965,141.116,231.886z M238.508,117.453c26.877,0,48.556,21.786,48.556,48.664
				s-21.7,48.556-48.556,48.556s-48.664-21.679-48.664-48.556S211.653,117.453,238.508,117.453z"/>
			<path style="fill:#010002;" d="M405.142,328.739h-92.366c-32.507,0-59.665,22.541-67.15,52.741h-16.674
				c-7.507-30.199-34.643-52.741-67.15-52.741H69.415C31.127,328.739,0,359.865,0,398.132s31.127,69.415,69.415,69.415h92.366
				c33.003,0,60.592-23.21,67.603-54.121h15.79c7.01,30.911,34.6,54.121,67.603,54.121h92.366c38.267,0,69.415-31.105,69.415-69.415
				S443.431,328.739,405.142,328.739z M161.781,435.104H69.415c-20.363,0-36.972-16.588-36.972-36.951s16.61-36.951,36.972-36.951
				h92.366c14.366,0,26.683,8.305,32.809,20.277h-36.239c-10.181,0-18.421,7.161-18.421,15.962c0,8.822,8.24,15.984,18.421,15.984
				h36.994C189.499,426.195,176.686,435.104,161.781,435.104z M405.142,435.104h-92.366c-14.905,0-27.718-8.909-33.586-21.657
				h37.015c10.203,0,18.421-7.162,18.421-15.984c0-8.822-8.262-15.962-18.421-15.962h-36.26
				c6.105-11.993,18.421-20.277,32.809-20.277h92.366c20.341,0,36.972,16.588,36.972,36.951S425.527,435.104,405.142,435.104z"/>
		</g>
	</g>
	<g>
	</g>
	<g>
	</g>
	<g>
	</g>
	<g>
	</g>
	<g>
	</g>
	<g>
	</g>
	<g>
	</g>
	<g>
	</g>
	<g>
	</g>
	<g>
	</g>
	<g>
	</g>
	<g>
	</g>
	<g>
	</g>
	<g>
	</g>
	<g>
	</g>
</g>
</svg>