<svg xmlns="http://www.w3.org/2000/svg" width="32" height="29" viewBox="0 0 32 29" fill="none"><path d="M28.5175 0V10.3125H29.8182V0H28.5175ZM27.2167 0.811875L20.4671 3L27.2167 5.1875V0.811875ZM8.78172 4.4375C8.42039 4.4375 8.04461 4.58125 7.67605 4.875C7.22801 5.2375 6.845 5.81875 6.67879 6.51875C6.51258 7.225 6.60652 7.89375 6.85945 8.375C7.11238 8.8625 7.48094 9.14375 7.91453 9.21875C8.34812 9.3 8.81063 9.1625 9.2659 8.80625C9.70672 8.44375 10.097 7.8625 10.2632 7.15625C10.4221 6.45 10.3282 5.78125 10.0825 5.3C9.82957 4.8125 9.46102 4.5375 9.02742 4.45625C8.94793 4.44375 8.86121 4.4375 8.78172 4.4375ZM6.00672 9.34375C5.76102 9.41875 5.50809 9.5 5.23348 9.6C3.43768 10.5813 2.18387 11.55 0.909101 13.0813C0.100449 14.05 0.0607031 15.7062 0 16.925L1.50312 17.5C1.566 15.7625 1.52914 15.0438 2.46209 14.0438C3.17246 13.2813 3.85898 12.4813 5.17566 12.2375C5.29129 14.0438 4.98777 16.8437 4.16395 19.7125C5.64539 19.8875 6.88113 19.6688 8.28309 19.3188C11.947 17.7375 13.638 19.0812 16.1817 22.175L17.6632 20.1688C15.8854 18.3625 14.1583 15.475 9.19363 16.5875C9.55496 14.8812 9.59832 13.75 9.81512 12.05C9.85848 11.3 9.87293 10.5563 9.89461 9.81875C9.25145 10.2438 8.45652 10.4687 7.65437 10.325C6.96785 10.2 6.40418 9.83125 6.00672 9.34375ZM16.4274 9.8C15.1122 10.9125 14.8231 11.7375 12.7997 12.2L11.1737 10.7C11.1448 11.5 11.1159 12.3187 11.0364 13.15C11.7229 13.6937 12.4239 14.1313 12.6768 14.0625C14.9387 13.475 15.5891 12.7938 17.1139 11.4438L16.4274 9.8ZM26.3495 11.4375V17.4375H19.412V23.4375H12.4745V28.3188C19.8673 28.3313 24.6007 28.3875 31.9862 28.4312V11.4375H26.3495ZM6.96062 20.7437C5.97781 20.9 4.95164 20.95 3.82141 20.8C3.03443 23.1437 1.88758 25.4437 0.315801 27.2062L3.10742 28.1625C5.06004 25.7938 5.76824 23.75 6.96062 20.7437Z" fill="white" data-darkreader-inline-fill="" style="--darkreader-inline-fill: var(--darkreader-text-ffffff, #e8e6e3);"></path></svg>