<svg xmlns="http://www.w3.org/2000/svg" width="11" height="14" viewBox="0 0 11 14" fill="none"><path d="M6.4337 0.985352C5.20652 0.985352 4.29936 1.58736 3.74913 2.27139V1.54388C3.74913 1.38919 3.63925 1.26375 3.50364 1.26375H0.577516C0.44191 1.26375 0.332031 1.38919 0.332031 1.54388V12.7452C0.332031 12.8999 0.44191 13.0253 0.577516 13.0253H3.62629C3.76189 13.0253 3.87177 12.8999 3.87177 12.7452V7.20313C3.87177 5.33559 4.3163 4.60803 5.45711 4.60803C6.69956 4.60803 6.79829 5.77439 6.79829 7.29921V12.7452C6.79829 12.9 6.90817 13.0254 7.04378 13.0254H10.0937C10.2293 13.0254 10.3392 12.9 10.3392 12.7452V6.60112C10.3392 3.82416 9.87515 0.985352 6.4337 0.985352Z" fill="white"></path></svg>