<svg xmlns="http://www.w3.org/2000/svg" width="46" height="43" viewBox="0 0 46 43" fill="none"><path d="M45.2965 16.1424C45.1371 15.6329 44.5949 15.3489 44.085 15.5086L43.218 15.78C42.1408 15.2594 37.0659 12.7464 32.9764 9.70143C28.4042 6.29672 24.1025 1.51002 24.0596 1.46203C24.0342 1.43364 23.976 1.40763 23.976 1.38293V0.977051C23.976 0.443115 23.543 0.0102539 23.0092 0.0102539C22.4753 0.0102539 22.0424 0.443115 22.0424 0.977051V1.41571C22.0424 1.43092 22.0146 1.44568 21.9999 1.46212C21.9571 1.51002 17.6657 6.29294 13.0883 9.70134C9.06692 12.6957 4.08353 15.1801 2.90104 15.7541L2.12084 15.5089C1.61107 15.3488 1.06896 15.6322 0.908916 16.1415C0.748955 16.6509 1.03231 17.1936 1.54164 17.3536L2.47776 17.6476C3.19328 18.9367 5.76601 23.7083 7.31025 28.3607C8.84131 32.9732 9.63329 38.2939 9.83834 39.8026C9.83131 39.8237 9.82507 39.8451 9.81962 39.8668L9.18021 40.7561C8.86855 41.1896 8.96726 41.7938 9.40082 42.1055C9.56488 42.2238 9.76207 42.2875 9.96437 42.2874C10.265 42.2874 10.5612 42.1476 10.7501 41.885L11.4156 40.9593C12.9699 40.6562 18.2002 39.7086 23.0155 39.6702C27.7795 39.6321 32.9772 40.48 34.5897 40.7662L35.3903 41.8784C35.4799 42.003 35.5979 42.1045 35.7345 42.1744C35.8711 42.2444 36.0224 42.2807 36.1758 42.2805C36.3783 42.2807 36.5757 42.2169 36.7398 42.0984C37.1732 41.7864 37.2716 41.1822 36.9597 40.7489L36.6647 40.339C36.6742 40.3004 36.6823 40.2612 36.6872 40.2207C36.6948 40.1568 37.4741 33.7709 39.2699 28.3606C40.8774 23.5175 43.6051 18.5356 44.1825 17.5041L44.6625 17.3539C45.1722 17.1944 45.456 16.6519 45.2965 16.1424ZM31.8183 11.2522C34.8832 13.5343 38.3989 15.4868 40.5617 16.6109L37.1645 17.6744C37.1225 17.6666 37.0799 17.6616 37.0372 17.6594C37.0273 17.6542 37.0182 17.6484 37.008 17.6436C36.9688 17.6249 33.0509 15.7524 29.9811 13.4439C26.9114 11.1354 24.0218 7.89088 23.993 7.85836C23.9886 7.85344 23.9759 7.84922 23.9759 7.84438V4.20703C25.6459 5.93602 28.63 8.87807 31.8183 11.2522ZM13.6213 25.9267C12.9362 23.8986 11.9963 21.8782 11.25 20.4029L14.061 21.2858C14.4235 21.9414 15.3548 23.6946 15.933 25.4065C16.5433 27.2132 16.8703 29.3064 16.9601 29.9362L15.1983 32.3866C14.9099 30.7246 14.3994 28.2303 13.6213 25.9267ZM17.7648 24.7876C17.4446 23.8393 17.0332 22.8944 16.6538 22.1002L21.4997 23.6223L18.5399 27.7388C18.3577 26.8466 18.1028 25.7881 17.7648 24.7876ZM23.976 16.4244C24.6791 17.0893 25.5253 17.8829 26.4344 18.5664C27.2796 19.2021 28.2046 19.7769 28.9953 20.2301L23.976 21.8006V16.4244ZM22.0424 21.7683L17.2188 20.2521C18.0178 19.7956 18.9592 19.2122 19.8181 18.5664C20.6277 17.9575 21.4272 17.2613 22.0424 16.6466V21.7683ZM23.066 24.7564L26.0222 28.8633C25.1736 28.7683 24.1933 28.6925 23.2374 28.6956C22.1283 28.7006 20.9887 28.813 20.0599 28.9372L23.066 24.7564ZM28.4263 24.7876C28.0807 25.8107 27.8218 26.8949 27.6388 27.7995L24.6328 23.6234L29.5442 22.0861C29.1629 22.8833 28.7485 23.8336 28.4263 24.7876ZM31.5862 19.4207C31.0263 19.1434 29.1349 18.1754 27.5999 17.021C25.7909 15.6606 24.0795 13.7415 24.0626 13.7224C24.0364 13.6927 23.976 13.6657 23.976 13.6401V10.6657C25.1186 11.8696 26.9336 13.5739 28.8157 14.9893C30.7635 16.4541 32.9796 17.7237 34.4672 18.5184L31.5862 19.4207ZM22.0424 13.8829C21.6029 14.3724 20.1661 15.8866 18.6576 17.021C17.0888 18.2009 15.1401 19.1904 14.6344 19.4398L11.7581 18.5361C13.2459 17.7427 15.4758 16.465 17.438 14.9894C19.202 13.6627 20.8998 12.0825 22.0424 10.8981V13.8829ZM18.4624 31.159C18.7007 31.1107 21.0875 30.6388 23.2462 30.6291C24.9243 30.6226 26.7479 30.8936 27.586 31.0356L29.3512 33.4879C27.7195 33.2508 25.3945 32.9865 23.1385 32.9865C23.0957 32.9865 23.053 32.9866 23.0102 32.9867C20.7518 32.9969 18.4122 33.279 16.756 33.5324L18.4624 31.159ZM30.9829 32.4452L29.2224 29.9993C29.2974 29.46 29.6257 27.2794 30.2583 25.4064C30.8384 23.689 31.7785 21.9221 32.1367 21.2746L34.945 20.3956C34.1981 21.8716 33.2562 23.8952 32.5699 25.9268C31.7827 28.2573 31.2692 30.7838 30.9829 32.4452ZM14.2413 11.2522C17.4078 8.89433 20.3725 5.97627 22.0424 4.24272V8.09602C21.3393 8.88756 18.8675 11.4953 16.2763 13.4439C13.2066 15.7524 9.29025 17.6249 9.25105 17.6436C9.24095 17.6484 9.2326 17.6542 9.22275 17.6593C9.15478 17.6574 9.0869 17.6629 9.01911 17.6757L5.54893 16.5861C7.71534 15.4582 11.199 13.5175 14.2413 11.2522ZM5.11888 18.4771L8.62589 19.5787C9.24481 20.6994 10.8146 23.6598 11.7893 26.5456C13.0185 30.1844 13.5675 34.4921 13.573 34.5352C13.5768 34.5657 13.582 34.5956 13.5885 34.625L11.4622 37.5824C11.0678 35.164 10.3244 31.303 9.1455 27.7515C7.96495 24.1948 6.2488 20.6506 5.11888 18.4771ZM23.0002 37.7365C19.3062 37.766 15.4631 38.2945 13.0405 38.6994L15.1455 35.7719C16.1316 35.5817 19.7216 34.9351 23.0187 34.9203C23.0578 34.9201 23.097 34.9201 23.1362 34.9201C26.4564 34.9201 30.0534 35.5445 30.951 35.7105L32.9895 38.5426C30.5621 38.176 26.7032 37.7068 23.0002 37.7365ZM37.435 27.7515C36.1716 31.5578 35.4083 35.7196 35.0388 38.0799L32.5888 34.6762C32.6021 34.63 32.6119 34.5828 32.6182 34.535C32.6236 34.492 33.1706 30.1905 34.4018 26.5456C35.3777 23.6563 36.95 20.6923 37.5675 19.5746L41.5372 18.332C40.4094 20.4905 38.6422 24.1145 37.435 27.7515Z" fill="white"></path></svg>