<svg xmlns="http://www.w3.org/2000/svg" width="19" height="17" viewBox="0 0 19 17" fill="none"><path d="M18.1471 1.9484C17.8678 2.08978 17.5806 2.2091 17.2872 2.30597C17.6346 1.85762 17.8995 1.33008 18.0612 0.752793C18.0974 0.623394 18.0598 0.481756 17.9666 0.397127C17.8735 0.312432 17.7442 0.302287 17.6417 0.3716C17.0185 0.793373 16.3462 1.09648 15.6412 1.27373C14.9311 0.481887 13.9666 0.03125 12.9695 0.03125C10.8648 0.03125 9.15249 1.98519 9.15249 4.38688C9.15249 4.57604 9.16298 4.76415 9.18375 4.94964C6.57202 4.68796 4.14394 3.22308 2.47659 0.889129C2.41717 0.80594 2.32563 0.761105 2.23191 0.769679C2.13813 0.778057 2.05387 0.838404 2.00649 0.931149C1.66832 1.59333 1.48954 2.35067 1.48954 3.12124C1.48954 4.17076 1.81791 5.16655 2.39795 5.94464C2.22158 5.87493 2.05043 5.78782 1.88708 5.68434C1.79938 5.62864 1.69235 5.62949 1.60523 5.6865C1.51805 5.74351 1.46339 5.84836 1.46109 5.96297C1.46069 5.98228 1.46069 6.00158 1.46069 6.02115C1.46069 7.58775 2.19956 8.99817 3.32919 9.76691C3.23215 9.75584 3.13516 9.73981 3.0388 9.7188C2.93946 9.69713 2.8373 9.73686 2.77031 9.82333C2.7032 9.90972 2.68101 10.0302 2.71192 10.1401C3.13005 11.6298 4.20658 12.7255 5.508 13.0596C4.4286 13.8311 3.19423 14.2352 1.89843 14.2352C1.62806 14.2352 1.35613 14.2171 1.08999 14.1811C0.957788 14.1632 0.831374 14.2523 0.786349 14.3957C0.741324 14.5393 0.789045 14.6993 0.901521 14.7816C2.56618 15.9996 4.49101 16.6434 6.4678 16.6434C10.3539 16.6434 12.785 14.5522 14.14 12.7979C15.8298 10.6104 16.7989 7.71499 16.7989 4.85415C16.7989 4.73463 16.7973 4.61394 16.794 4.49364C17.4607 3.92047 18.0347 3.22681 18.5017 2.42954C18.5727 2.30846 18.565 2.14843 18.4828 2.03696C18.4007 1.92543 18.2639 1.88937 18.1471 1.9484Z" fill="white"></path></svg>